<?xml version="1.0" encoding="UTF-8" standalone="no"?>
<svg
   xmlns:dc="http://purl.org/dc/elements/1.1/"
   xmlns:cc="http://creativecommons.org/ns#"
   xmlns:rdf="http://www.w3.org/1999/02/22-rdf-syntax-ns#"
   xmlns:svg="http://www.w3.org/2000/svg"
   xmlns="http://www.w3.org/2000/svg"
   viewBox="0 0 340.16 340.16"
   height="340.16"
   width="340.16"
   xml:space="preserve"
   id="svg2"
   version="1.1"><metadata
     id="metadata8"><rdf:RDF><cc:Work
         rdf:about=""><dc:format>image/svg+xml</dc:format><dc:type
           rdf:resource="http://purl.org/dc/dcmitype/StillImage" /></cc:Work></rdf:RDF></metadata><defs
     id="defs6"><clipPath
       id="clipPath32"
       clipPathUnits="userSpaceOnUse"><path
         id="path30"
         d="M 0,255.12 H 255.12 V 0 H 0 Z" /></clipPath></defs><g
     transform="matrix(1.3333333,0,0,-1.3333333,0,340.16)"
     id="g10"><path
       id="path12"
       style="fill:#0099e6;fill-opacity:1;fill-rule:nonzero;stroke:none"
       d="M 0,0 H 255.12 V 255.12 H 0 Z" /><g
       transform="translate(0,122.9917)"
       id="g14"><path
         id="path16"
         style="fill:#0083d7;fill-opacity:1;fill-rule:nonzero;stroke:none"
         d="m 0,0 v -122.992 h 28.011 l 80.531,59.593 -2.785,120.525 -21.276,3.328 z" /></g><g
       transform="translate(41.8221,75.501)"
       id="g18"><path
         id="path20"
         style="fill:#0083d7;fill-opacity:1;fill-rule:nonzero;stroke:none"
         d="M 0,0 -41.822,-63.157 V -75.501 H -7.995 L 197.181,71.62 152.563,109.174 Z" /></g><g
       transform="translate(7.5492,39.2706)"
       id="g22"><path
         id="path24"
         style="fill:#0083d7;fill-opacity:1;fill-rule:nonzero;stroke:none"
         d="M 0,0 -7.549,-11.4 V -39.271 H 42.532 L 197.18,71.62 152.564,109.174 Z" /></g><g
       id="g26"><g
         clip-path="url(#clipPath32)"
         id="g28"><g
           transform="translate(172.7129,143.7802)"
           id="g34"><path
             id="path36"
             style="fill:#0099e6;fill-opacity:1;fill-rule:nonzero;stroke:none"
             d="m 0,0 c 0,-17.128 -13.581,-31.014 -30.335,-31.014 -16.754,0 -30.336,13.886 -30.336,31.014 0,17.128 13.582,31.013 30.336,31.013 C -13.581,31.013 0,17.128 0,0" /></g><g
           transform="translate(165.2129,143.7802)"
           id="g38"><path
             id="path40"
             style="fill:#ffffff;fill-opacity:1;fill-rule:nonzero;stroke:none"
             d="m 0,0 c -0.275,-12.552 -9.869,-23.514 -22.835,-23.514 -12.754,0 -22.836,10.964 -22.836,23.514 0,12.549 10.081,23.513 22.836,23.513 C -9.865,23.513 -0.275,12.552 0,0 0.212,-9.638 15.213,-9.672 15,0 14.645,16.198 5.047,30.583 -10.257,36.305 -24.863,41.766 -41.96,36.738 -51.747,24.77 -61.897,12.355 -63.513,-5.463 -55.505,-19.438 -47.451,-33.494 -31.214,-40.732 -15.389,-37.746 2.554,-34.359 14.61,-17.728 15,0 15.213,9.656 0.213,9.654 0,0" /></g><g
           transform="translate(89.0591,169.8397)"
           id="g42"><path
             id="path44"
             style="fill:#ffffff;fill-opacity:1;fill-rule:nonzero;stroke:none"
             d="m 0,0 h 19.483 l -7.5,7.5 v -110.448 -15.778 l 7.5,7.5 H 0 c -9.652,0 -9.668,-15 0,-15 h 19.483 c 4.055,0 7.5,3.437 7.5,7.5 V -8.277 7.5 c 0,4.054 -3.436,7.5 -7.5,7.5 L 0,15 C -9.652,15 -9.668,0 0,0" /></g><g
           transform="translate(17.4932,154.0707)"
           id="g46"><path
             id="path48"
             style="fill:#0083d7;fill-opacity:1;fill-rule:nonzero;stroke:none"
             d="m 0,0 -59.596,-41.621 6.316,-95.966 97.979,103.931" /></g><g
           transform="translate(64.2407,120.8524)"
           id="g50"><path
             id="path52"
             style="fill:#ffffff;fill-opacity:1;fill-rule:nonzero;stroke:none"
             d="m 0,0 c -13.125,10.292 -26.25,20.585 -39.375,30.877 -0.506,-3.926 -1.012,-7.853 -1.518,-11.779 13.254,9.456 26.509,18.911 39.763,28.367 7.792,5.558 0.309,18.574 -7.571,12.951 -13.254,-9.455 -26.508,-18.91 -39.763,-28.366 -3.469,-2.475 -5.659,-8.532 -1.517,-11.779 13.125,-10.293 26.249,-20.585 39.374,-30.877 3.211,-2.519 7.465,-3.075 10.607,0 C 2.628,-8.035 3.182,-2.495 0,0" /></g><g
           transform="translate(142.3779,154.8925)"
           id="g54"><path
             id="path56"
             style="fill:#ffffff;fill-opacity:1;fill-rule:nonzero;stroke:none"
             d="m 0,0 c 6.297,-0.191 10.725,-5.024 10.622,-11.112 -0.081,-4.828 7.419,-4.829 7.5,0 C 18.294,-0.88 10.291,7.188 0,7.5 -4.828,7.646 -4.823,0.146 0,0" /></g><g
           transform="translate(193.5762,173.7865)"
           id="g58"><path
             id="path60"
             style="fill:#ffffff;fill-opacity:1;fill-rule:nonzero;stroke:none"
             d="m 0,0 c 13.125,-11.725 26.25,-23.45 39.375,-35.174 0.506,3.926 1.012,7.853 1.518,11.779 -13.254,-9.456 -26.509,-18.911 -39.763,-28.366 -7.792,-5.56 -0.31,-18.574 7.571,-12.952 13.254,9.455 26.508,18.91 39.763,28.366 3.684,2.629 5.408,8.303 1.517,11.779 C 36.856,-12.843 23.731,-1.118 10.606,10.606 3.427,17.02 -7.217,6.447 0,0" /></g></g></g></g></svg>