<svg xmlns="http://www.w3.org/2000/svg" xmlns:xlink="http://www.w3.org/1999/xlink" xmlns:lucid="lucid" width="800" height="320"><g transform="translate(-320 -180)" lucid:page-tab-id="0_0"><path d="M340 286c0-3 3-6 6-6h128c3 0 6 3 6 6v28c0 3-3 6-6 6H346c-3 0-6-3-6-6z" stroke="#5e5e5e" stroke-width="3" fill="#fff"/><use xlink:href="#a" transform="translate(373 308)"/><path d="M480 206c0-3 3-6 6-6h88c3 0 6 3 6 6v28c0 3-3 6-6 6h-88c-3 0-6-3-6-6z" stroke="#5e5e5e" stroke-width="3" fill="#fff"/><use xlink:href="#b" transform="translate(503 228)"/><path d="M480 366c0-3 3-6 6-6h88c3 0 6 3 6 6v28c0 3-3 6-6 6h-88c-3 0-6-3-6-6z" stroke="#5e5e5e" stroke-width="3" fill="#fff"/><use xlink:href="#c" transform="translate(509 388)"/><path d="M619 286c0-3 2-6 6-6h128c3 0 6 3 6 6v28c0 3-3 6-6 6H625c-4 0-6-3-6-6z" stroke="#5e5e5e" stroke-width="3" fill="#fff"/><use xlink:href="#d" transform="translate(642 308)"/><path d="M619 206c0-3 2-6 6-6h128c3 0 6 3 6 6v28c0 3-3 6-6 6H625c-4 0-6-3-6-6z" stroke="#5e5e5e" stroke-width="3" fill="#fff"/><use xlink:href="#e" transform="translate(665 228)"/><path d="M619 366c0-3 2-6 6-6h128c3 0 6 3 6 6v28c0 3-3 6-6 6H625c-4 0-6-3-6-6z" stroke="#5e5e5e" stroke-width="3" fill="#fff"/><use xlink:href="#f" transform="translate(645 388)"/><path d="M799 285c0-4 2-6 6-6h128c3 0 6 2 6 6v29c0 3-3 6-6 6H805c-4 0-6-3-6-6z" stroke="#5e5e5e" stroke-width="3" fill="#fff"/><use xlink:href="#g" transform="translate(813 307)"/><use xlink:href="#h" transform="translate(884 307)"/><path d="M976 286c0-3 3-6 6-6h112c3 0 6 3 6 6v29c0 4-3 6-6 6H982c-3 0-6-2-6-6z" stroke="#5e5e5e" stroke-width="3" fill="#fff"/><use xlink:href="#i" transform="translate(1008 308)"/><path d="M976 367c0-4 3-6 6-6h112c3 0 6 2 6 6v27c0 3-3 6-6 6H982c-3 0-6-3-6-6z" stroke="#5e5e5e" stroke-width="3" fill="#fff"/><use xlink:href="#j" transform="translate(1015 389)"/><path d="M410 278v-52c0-3 3-6 6-6h44" stroke="#5e5e5e" stroke-width="2" fill="none"/><path d="M411 279h-2v-2h2z" fill="#5e5e5e"/><path d="M475 220l-14 5v-10z" stroke="#5e5e5e" stroke-width="2" fill="#5e5e5e"/><path d="M410 323v51c0 3 3 6 6 6h44" stroke="#5e5e5e" stroke-width="2" fill="none"/><path d="M411 323h-2v-2h2z" fill="#5e5e5e"/><path d="M475 380l-14 5v-10z" stroke="#5e5e5e" stroke-width="2" fill="#5e5e5e"/><path d="M583 220h16" stroke="#5e5e5e" stroke-width="2" fill="none"/><path d="M583 221h-2v-2h2z" fill="#5e5e5e"/><path d="M614 220l-15 5v-10z" stroke="#5e5e5e" stroke-width="2" fill="#5e5e5e"/><path d="M583 380h16" stroke="#5e5e5e" stroke-width="2" fill="none"/><path d="M583 381h-2v-2h2z" fill="#5e5e5e"/><path d="M614 380l-15 5v-10z" stroke="#5e5e5e" stroke-width="2" fill="#5e5e5e"/><path d="M483 300h116" stroke="#5e5e5e" stroke-width="2" fill="none"/><path d="M483 301h-2v-2h2z" fill="#5e5e5e"/><path d="M614 300l-15 5v-10z" stroke="#5e5e5e" stroke-width="2" fill="#5e5e5e"/><path d="M761 300h18" stroke="#5e5e5e" stroke-width="2" fill="none"/><path d="M761 301h-1v-2h1z" fill="#5e5e5e"/><path d="M794 300l-15 5v-10z" stroke="#5e5e5e" stroke-width="2" fill="#5e5e5e"/><path d="M941 299h16" stroke="#5e5e5e" stroke-width="2" fill="none"/><path d="M941 300h-1v-2h1z" fill="#5e5e5e"/><path d="M971 300l-14 4v-9z" stroke="#5e5e5e" stroke-width="2" fill="#5e5e5e"/><path d="M1038 324v17" stroke="#5e5e5e" stroke-width="2" fill="none"/><path d="M1039 324h-2v-1h2z" fill="#5e5e5e"/><path d="M1038 356l-5-14h10z" stroke="#5e5e5e" stroke-width="2" fill="#5e5e5e"/><path d="M761 220h102c3 0 6 3 6 6v33" stroke="#5e5e5e" stroke-width="2" fill="none"/><path d="M761 221h-1v-2h1z" fill="#5e5e5e"/><path d="M869 274l-5-14h9z" stroke="#5e5e5e" stroke-width="2" fill="#5e5e5e"/><path d="M761 380h102c3 0 6-3 6-6v-34" stroke="#5e5e5e" stroke-width="2" fill="none"/><path d="M761 381h-1v-2h1z" fill="#5e5e5e"/><path d="M869 325l4 14h-9z" stroke="#5e5e5e" stroke-width="2" fill="#5e5e5e"/><path d="M976 445c0-3 3-6 6-6h112c3 0 6 3 6 6v29c0 3-3 6-6 6H982c-3 0-6-3-6-6z" stroke="#5e5e5e" stroke-width="3" fill="#fff"/><use xlink:href="#k" transform="translate(990 467)"/><path d="M1037 403v16" stroke="#5e5e5e" stroke-width="2" fill="none"/><path d="M1038 403h-2v-2h2z" fill="#5e5e5e"/><path d="M1037 435l-5-15h9z" stroke="#5e5e5e" stroke-width="2" fill="#5e5e5e"/><defs><path fill="#333" d="M190 0L58-211 59 0H30v-248h39L202-35l-2-213h31V0h-41" id="l"/><path fill="#333" d="M100-194c63 0 86 42 84 106H49c0 40 14 67 53 68 26 1 43-12 49-29l28 8c-11 28-37 45-77 45C44 4 14-33 15-96c1-61 26-98 85-98zm52 81c6-60-76-77-97-28-3 7-6 17-6 28h103" id="m"/><path fill="#333" d="M59-47c-2 24 18 29 38 22v24C64 9 27 4 27-40v-127H5v-23h24l9-43h21v43h35v23H59v120" id="n"/><path fill="#333" d="M206 0h-36l-40-164L89 0H53L-1-190h32L70-26l43-164h34l41 164 42-164h31" id="o"/><path fill="#333" d="M100-194c62-1 85 37 85 99 1 63-27 99-86 99S16-35 15-95c0-66 28-99 85-99zM99-20c44 1 53-31 53-75 0-43-8-75-51-75s-53 32-53 75 10 74 51 75" id="p"/><path fill="#333" d="M114-163C36-179 61-72 57 0H25l-1-190h30c1 12-1 29 2 39 6-27 23-49 58-41v29" id="q"/><path fill="#333" d="M143 0L79-87 56-68V0H24v-261h32v163l83-92h37l-77 82L181 0h-38" id="r"/><path fill="#333" d="M197 0v-115H63V0H30v-248h33v105h134v-105h34V0h-34" id="s"/><path fill="#333" d="M127-220V0H93v-220H8v-28h204v28h-85" id="t"/><path fill="#333" d="M240 0l2-218c-23 76-54 145-80 218h-23L58-218 59 0H30v-248h44l77 211c21-75 51-140 76-211h43V0h-30" id="u"/><path fill="#333" d="M30 0v-248h33v221h125V0H30" id="v"/><path fill="#333" d="M212-179c-10-28-35-45-73-45-59 0-87 40-87 99 0 60 29 101 89 101 43 0 62-24 78-52l27 14C228-24 195 4 139 4 59 4 22-46 18-125c-6-104 99-153 187-111 19 9 31 26 39 46" id="w"/><path fill="#333" d="M185-189c-5-48-123-54-124 2 14 75 158 14 163 119 3 78-121 87-175 55a71 71 0 01-33-46l33-7c5 56 141 63 141-1 0-78-155-14-162-118-5-82 145-84 179-34 5 7 8 16 11 25" id="x"/><path fill="#333" d="M153-248C145-148 188 4 80 4 36 3 13-21 6-62l32-5c4 25 16 42 43 43 27 0 39-20 39-49v-147H72v-28h81" id="y"/><path fill="#333" d="M141-36C126-15 110 5 73 4 37 3 15-17 15-53c-1-64 63-63 125-63 3-35-9-54-41-54-24 1-41 7-42 31l-33-3c5-37 33-52 76-52 45 0 72 20 72 64v82c-1 20 7 32 28 27v20c-31 9-61-2-59-35zM48-53c0 20 12 33 32 33 41-3 63-29 60-74-43 2-92-5-92 41" id="z"/><path fill="#333" d="M108 0H70L1-190h34L89-25l56-165h34" id="A"/><path fill="#333" d="M96-169c-40 0-48 33-48 73s9 75 48 75c24 0 41-14 43-38l32 2c-6 37-31 61-74 61-59 0-76-41-82-99-10-93 101-131 147-64 4 7 5 14 7 22l-32 3c-4-21-16-35-41-35" id="B"/><path fill="#333" d="M24-231v-30h32v30H24zM24 0v-190h32V0H24" id="C"/><path fill="#333" d="M115-194c55 1 70 41 70 98S169 2 115 4C84 4 66-9 55-30l1 105H24l-1-265h31l2 30c10-21 28-34 59-34zm-8 174c40 0 45-34 45-75s-6-73-45-74c-42 0-51 32-51 76 0 43 10 73 51 73" id="D"/><path fill="#333" d="M30-248c118-7 216 8 213 122C240-48 200 0 122 0H30v-248zM63-27c89 8 146-16 146-99s-60-101-146-95v194" id="E"/><path fill="#333" d="M140-251c81 0 123 46 123 126C263-46 219 4 140 4 59 4 17-45 17-125s42-126 123-126zm0 227c63 0 89-41 89-101s-29-99-89-99c-61 0-89 39-89 99S79-25 140-24" id="F"/><path fill="#333" d="M233-177c-1 41-23 64-60 70L243 0h-38l-65-103H63V0H30v-248c88 3 205-21 203 71zM63-129c60-2 137 13 137-47 0-61-80-42-137-45v92" id="G"/><path fill="#333" d="M117-194c89-4 53 116 60 194h-32v-121c0-31-8-49-39-48C34-167 62-67 57 0H25l-1-190h30c1 10-1 24 2 32 11-22 29-35 61-36" id="H"/><path fill="#333" d="M85-194c31 0 48 13 60 33l-1-100h32l1 261h-30c-2-10 0-23-3-31C134-8 116 4 85 4 32 4 16-35 15-94c0-66 23-100 70-100zm9 24c-40 0-46 34-46 75 0 40 6 74 45 74 42 0 51-32 51-76 0-42-9-74-50-73" id="I"/><path fill="#333" d="M179-190L93 31C79 59 56 82 12 73V49c39 6 53-20 64-50L1-190h34L92-34l54-156h33" id="J"/><path fill="#333" d="M84 4C-5 8 30-112 23-190h32v120c0 31 7 50 39 49 72-2 45-101 50-169h31l1 190h-30c-1-10 1-25-2-33-11 22-28 36-60 37" id="K"/><path fill="#333" d="M30-248c87 1 191-15 191 75 0 78-77 80-158 76V0H30v-248zm33 125c57 0 124 11 124-50 0-59-68-47-124-48v98" id="L"/><path fill="#333" d="M210-169c-67 3-38 105-44 169h-31v-121c0-29-5-50-35-48C34-165 62-65 56 0H25l-1-190h30c1 10-1 24 2 32 10-44 99-50 107 0 11-21 27-35 58-36 85-2 47 119 55 194h-31v-121c0-29-5-49-35-48" id="M"/><path fill="#333" d="M135-143c-3-34-86-38-87 0 15 53 115 12 119 90S17 21 10-45l28-5c4 36 97 45 98 0-10-56-113-15-118-90-4-57 82-63 122-42 12 7 21 19 24 35" id="N"/><g id="a"><use transform="scale(.05556)" xlink:href="#l"/><use transform="matrix(.05556 0 0 .05556 14 0)" xlink:href="#m"/><use transform="matrix(.05556 0 0 .05556 25 0)" xlink:href="#n"/><use transform="matrix(.05556 0 0 .05556 31 0)" xlink:href="#o"/><use transform="matrix(.05556 0 0 .05556 45 0)" xlink:href="#p"/><use transform="matrix(.05556 0 0 .05556 57 0)" xlink:href="#q"/><use transform="matrix(.05556 0 0 .05556 63 0)" xlink:href="#r"/></g><g id="b"><use transform="scale(.05556)" xlink:href="#s"/><use transform="matrix(.05556 0 0 .05556 14 0)" xlink:href="#t"/><use transform="matrix(.05556 0 0 .05556 27 0)" xlink:href="#u"/><use transform="matrix(.05556 0 0 .05556 43 0)" xlink:href="#v"/></g><g id="c"><use transform="scale(.05556)" xlink:href="#w"/><use transform="matrix(.05556 0 0 .05556 14 0)" xlink:href="#x"/><use transform="matrix(.05556 0 0 .05556 28 0)" xlink:href="#x"/></g><g id="d"><use transform="scale(.05556)" xlink:href="#y"/><use transform="matrix(.05556 0 0 .05556 10 0)" xlink:href="#z"/><use transform="matrix(.05556 0 0 .05556 21 0)" xlink:href="#A"/><use transform="matrix(.05556 0 0 .05556 31 0)" xlink:href="#z"/><use transform="matrix(.05556 0 0 .05556 42 0)" xlink:href="#x"/><use transform="matrix(.05556 0 0 .05556 56 0)" xlink:href="#B"/><use transform="matrix(.05556 0 0 .05556 66 0)" xlink:href="#q"/><use transform="matrix(.05556 0 0 .05556 72 0)" xlink:href="#C"/><use transform="matrix(.05556 0 0 .05556 77 0)" xlink:href="#D"/><use transform="matrix(.05556 0 0 .05556 88 0)" xlink:href="#n"/></g><g id="e"><use transform="scale(.05556)" xlink:href="#E"/><use transform="matrix(.05556 0 0 .05556 14 0)" xlink:href="#F"/><use transform="matrix(.05556 0 0 .05556 30 0)" xlink:href="#u"/></g><g id="f"><use transform="scale(.05556)" xlink:href="#w"/><use transform="matrix(.05556 0 0 .05556 14 0)" xlink:href="#x"/><use transform="matrix(.05556 0 0 .05556 28 0)" xlink:href="#x"/><use transform="matrix(.05556 0 0 .05556 41 0)" xlink:href="#E"/><use transform="matrix(.05556 0 0 .05556 55 0)" xlink:href="#F"/><use transform="matrix(.05556 0 0 .05556 71 0)" xlink:href="#u"/></g><g id="g"><use transform="scale(.05556)" xlink:href="#G"/><use transform="matrix(.05556 0 0 .05556 14 0)" xlink:href="#m"/><use transform="matrix(.05556 0 0 .05556 25 0)" xlink:href="#H"/><use transform="matrix(.05556 0 0 .05556 37 0)" xlink:href="#I"/><use transform="matrix(.05556 0 0 .05556 48 0)" xlink:href="#m"/><use transform="matrix(.05556 0 0 .05556 59 0)" xlink:href="#q"/></g><g id="h"><use transform="scale(.05556)" xlink:href="#t"/><use transform="matrix(.05556 0 0 .05556 11 0)" xlink:href="#q"/><use transform="matrix(.05556 0 0 .05556 18 0)" xlink:href="#m"/><use transform="matrix(.05556 0 0 .05556 29 0)" xlink:href="#m"/></g><g id="i"><use transform="scale(.05556)" xlink:href="#v"/><use transform="matrix(.05556 0 0 .05556 11 0)" xlink:href="#z"/><use transform="matrix(.05556 0 0 .05556 22 0)" xlink:href="#J"/><use transform="matrix(.05556 0 0 .05556 32 0)" xlink:href="#p"/><use transform="matrix(.05556 0 0 .05556 43 0)" xlink:href="#K"/><use transform="matrix(.05556 0 0 .05556 54 0)" xlink:href="#n"/></g><g id="j"><use transform="scale(.05556)" xlink:href="#L"/><use transform="matrix(.05556 0 0 .05556 13 0)" xlink:href="#z"/><use transform="matrix(.05556 0 0 .05556 24 0)" xlink:href="#C"/><use transform="matrix(.05556 0 0 .05556 29 0)" xlink:href="#H"/><use transform="matrix(.05556 0 0 .05556 40 0)" xlink:href="#n"/></g><g id="k"><use transform="scale(.05556)" xlink:href="#w"/><use transform="matrix(.05556 0 0 .05556 14 0)" xlink:href="#p"/><use transform="matrix(.05556 0 0 .05556 25 0)" xlink:href="#M"/><use transform="matrix(.05556 0 0 .05556 42 0)" xlink:href="#D"/><use transform="matrix(.05556 0 0 .05556 53 0)" xlink:href="#p"/><use transform="matrix(.05556 0 0 .05556 64 0)" xlink:href="#N"/><use transform="matrix(.05556 0 0 .05556 74 0)" xlink:href="#C"/><use transform="matrix(.05556 0 0 .05556 79 0)" xlink:href="#n"/><use transform="matrix(.05556 0 0 .05556 84 0)" xlink:href="#m"/></g></defs></g></svg>
