<svg viewBox="0 0 384 336" fill="none" stroke-linecap="square" stroke-miterlimit="10" xmlns="http://www.w3.org/2000/svg"><clipPath id="a"><path d="M0 0h384v336H0V0z"/></clipPath><g clip-path="url(#a)"><path fill="none" d="M0 0h384v336H0z"/><path fill="none" d="M48 28h288v33.6H48z"/><path fill="#999" d="M144.3 52.8q-.8-1.1-1.3-2.7t-.5-3.4q0-2.5 1.1-4.7 1.2-2.2 3.2-3.8l1 1q-1.8 1.6-2.7 3.5-.9 1.8-.9 4 0 1.6.4 2.9.4 1.2 1 2.3l-1.3 1zm5.2-13.6h1.8l-2 11.4h-1.8l2-11.4zm5 4.4q.5-.6 1.2-1 .6-.4 1.5-.4 1.3 0 2 .7.6.7.6 1.8v1l-1 5h-1.6l.8-4.8V45q0-.6-.3-1-.4-.3-1.1-.3-1 0-1.7.7t-.8 1.8l-.8 4.3h-1.7l1.4-8.1h1.6l-.2 1.1h.1zm9.3 7.2q-1 0-1.6-.5-.5-.6-.5-1.5V48l.8-4H161l.3-1.5h1.4l.5-2.3h1.7l-.4 2.3h2l-.3 1.5h-2l-.7 3.9v.5q0 .3.2.5.2.3.6.3.5 0 1-.3l-.2 1.6q-.6.3-1.3.3zm6.5.1q-1 0-2-.5-.8-.5-1.2-1.4-.5-.9-.5-1.9 0-1.3.6-2.4.6-1.1 1.7-1.8 1-.7 2.4-.7 1 0 1.9.5.8.5 1.2 1.3.4.7.4 1.7 0 .7-.2 1.2h-6.3v.4q0 1 .7 1.5.6.6 1.5.6t1.5-.4q.6-.3 1-1l1.3.7q-.7 1.1-1.6 1.7-1 .5-2.4.5zm2.9-5.3v-.1q0-.7-.6-1.3-.5-.5-1.4-.5-1 0-1.7.6-.7.5-1 1.3h4.7zm3.9-3.1h1.6l-.2 1q.4-.5 1.1-.9.8-.4 1.6-.4.6 0 1 .2l-.4 1.8q-.4-.3-1.2-.3-.9 0-1.6.7-.7.7-1 1.7l-.7 4.3h-1.7l1.5-8.1zm7.3 8.4q-.7 0-1.3-.3-.6-.4-1-1-.4-.5-.4-1.2 0-1.4 1-2.2 1-.8 2.7-.8l1.2.2q.6 0 1 .3l.2-.4V45q0-.6-.5-1t-1.3-.4q-1.3 0-2 1l-1.3-1q.6-.7 1.5-1 1-.5 2-.5 1.5 0 2.4.8.9.7.9 2l-.1.8-.9 4.8h-1.7l.2-1q-.5.6-1.1 1-.6.3-1.5.3zm.5-1.4q1 0 1.7-.6.7-.7.9-1.7l-1-.3q-.4-.2-1-.2-1 0-1.5.4t-.5 1.2q0 .5.4.9.4.3 1 .3zm9.4 1.4q-1.1 0-2-.5-.8-.5-1.3-1.4-.4-.9-.4-1.9 0-1.3.6-2.4.6-1.1 1.7-1.8 1-.7 2.5-.7 1.3 0 2.2.7.9.6 1.2 1.6l-1.6.6q-.2-.6-.8-1-.5-.3-1.2-.3-.8 0-1.5.4-.6.4-1 1.2-.4.7-.4 1.5 0 1 .6 1.7t1.6.7q.7 0 1.3-.3.7-.4 1-1l1.4.6q-1.2 2.3-4 2.3zm8.3-.1q-1 0-1.6-.5-.5-.6-.5-1.5V48l.8-4h-1.5l.3-1.5h1.4l.5-2.3h1.7l-.4 2.3h2L205 44h-2l-.7 3.9v.5q0 .3.2.5.2.3.6.3.5 0 1-.3l-.2 1.6q-.6.3-1.3.3zm5.9-9.5q-.5 0-.9-.4-.3-.3-.3-.8t.3-.8q.4-.3.9-.3.4 0 .7.3.4.3.4.8t-.4.8q-.3.4-.7.4zm-1.3 1.2h1.7l-1.5 8.1h-1.7l1.5-8.1zm3 0h1.8l1.3 6 3.4-6h2l-5 8.1H212l-1.9-8.1zm11-1.2q-.5 0-.8-.4-.4-.3-.4-.8t.4-.8q.3-.3.8-.3t.8.3q.3.3.3.8t-.3.8q-.3.4-.8.4zm-1.3 1.2h1.7l-1.4 8.1h-1.7l1.4-8.1zm5.7 8.3q-1 0-1.5-.5-.6-.6-.6-1.5V48l.8-4h-1.4l.3-1.5h1.4l.4-2.3h1.7l-.4 2.3h2L228 44h-2l-.7 3.9v.5q0 .3.2.5.3.3.7.3.5 0 1-.3l-.3 1.6q-.5.3-1.3.3zm5.6-.7l-2-7.6h1.9l1.3 5.6 3.4-5.6h1.9L230.6 54h-1.9l2.5-4zm5.3 1.8q1.8-1.7 2.7-3.6 1-1.8 1-4.1 0-1.5-.4-2.8-.4-1.2-1-2.3l1.2-1q.8 1.2 1.3 2.8.6 1.6.6 3.4 0 2.5-1.2 4.7-1.1 2.2-3.1 3.8l-1-1z"/><path fill="none" d="M48 67.2h288v96H48z"/><path fill="#2979ff" d="M128.4 83.7h40v11.2h-28.1v15.3h25.3v11.3h-25.3v25.2h-11.9v-63zm50.4 0h12v63h-12v-63zm26.3 0h21.3q9.8 0 17.1 4 7.3 3.9 11.3 11 4 7.2 4 16.5t-4 16.4q-4 7.2-11.3 11.1-7.3 4-17.1 4H205v-63zm20.7 51.7q10.2 0 15.6-5.4t5.4-14.8q0-9.4-5.4-14.8-5.4-5.5-15.6-5.5H217v40.5h9z"/><path fill="#0cce6b" d="M43.2 220.8h96v38.4h-96z" fill-rule="evenodd"/><path fill="#000" d="M77 244.7q-1.1 0-2.2-.6-1-.6-1.6-1.6-.6-1-.6-2.3 0-1.2.6-2.3.6-1 1.6-1.6 1-.6 2.3-.6 1 0 1.8.4.8.3 1.4 1l-1 .9q-.8-1-2.2-1-.9 0-1.6.4-.7.4-1.2 1.1-.4.8-.4 1.7 0 1 .5 1.7.4.8 1.1 1.2.7.4 1.6.4 1.3 0 2.2-.9l.5-.7.2-.9h-3V240h4.2l.1.7q0 .8-.2 1.5-.3.8-.8 1.3-.6.6-1.4 1-.8.3-1.8.3zm9.9 0q-1.3 0-2.3-.6-1-.6-1.6-1.6-.6-1-.6-2.3 0-1.2.6-2.2.6-1 1.6-1.7 1-.6 2.3-.6 1.2 0 2.2.6 1 .6 1.6 1.7.6 1 .6 2.2 0 1.3-.6 2.3-.6 1-1.6 1.6-1 .6-2.2.6zm0-1.2q.8 0 1.5-.5.8-.4 1.2-1.1.4-.7.4-1.7t-.4-1.7q-.4-.7-1.2-1-.7-.5-1.5-.5-1 0-1.6.4-.7.4-1.1 1.1-.5.8-.5 1.7 0 1 .5 1.7.4.7 1 1.1.8.5 1.7.5zm9.8 1.2q-1.2 0-2.2-.6-1-.6-1.6-1.6-.6-1-.6-2.3 0-1.2.6-2.2.5-1 1.6-1.7 1-.6 2.2-.6 1.3 0 2.3.6 1 .6 1.6 1.7.6 1 .6 2.2 0 1.3-.6 2.3-.6 1-1.6 1.6-1 .6-2.3.6zm0-1.2q.9 0 1.6-.5.7-.4 1.1-1.1.4-.7.4-1.7t-.4-1.7q-.4-.7-1.1-1-.7-.5-1.6-.5-.8 0-1.6.4-.7.4-1 1.1-.5.8-.5 1.7 0 1 .4 1.7t1.1 1.1q.8.5 1.6.5zm6-7.6h2.7q1.4 0 2.3.6 1 .5 1.6 1.5.5 1 .5 2.2 0 1.3-.5 2.3-.6 1-1.6 1.5t-2.3.5h-2.7V236zm2.7 7.4q1.5 0 2.3-.8.8-.9.8-2.3t-.8-2.2q-.8-.8-2.3-.8H104v6h1.4z"/><path fill="#ffa400" d="M139.2 220.8h105.6v38.4H139.2z" fill-rule="evenodd"/><path fill="#000" d="M174 229h1.6l3.8 6.2h.1V229h1.3v8.6h-1.4l-4.1-6.6v6.6H174V229zm8.7 0h5.2v1.2H184v2.4h3.5v1.2H184v2.5h4v1.2h-5.3V229zm6.9 0h5.2v1.2h-4v2.4h3.6v1.2h-3.5v2.5h3.9v1.2h-5.2V229zm6.8 0h2.8q1.3 0 2.3.5 1 .5 1.5 1.5t.5 2.2q0 1.3-.5 2.3-.5 1-1.5 1.5t-2.3.5h-2.8V229zm2.7 7.3q1.5 0 2.3-.8.8-.9.8-2.3t-.8-2.2q-.8-.8-2.3-.8h-1.4v6h1.4zm8.5 1.4q-1.1 0-2-.6-.8-.6-1.2-1.8l1.3-.5q.2.7.7 1.2.5.5 1.2.5.6 0 1-.4.5-.3.5-.9 0-.5-.4-.9l-1.3-.7-.6-.2q-.9-.3-1.4-.8-.6-.6-.6-1.5 0-.7.3-1.2.4-.5 1-.9.6-.3 1.4-.3 1 0 1.8.6.6.5.9 1.2l-1.2.5q-.1-.4-.5-.7-.4-.3-1-.3t-1 .3q-.4.3-.4.8 0 .4.3.7l1.2.6.5.1q1.1.4 1.7 1 .6.7.6 1.7 0 .8-.4 1.4-.4.6-1 .8-.8.3-1.4.3zm3.4-.2zM150.2 243h1.3v8.5h-1.3V243zm3.2 0h1.8l2.5 6.5h.1l2.5-6.6h1.8v8.6h-1.3v-6.4l-2.5 6.4h-1l-2.6-6.4v6.4h-1.3V243zm10.6 0h3q.8 0 1.4.3.6.3 1 1 .4.5.4 1.2 0 .8-.4 1.4-.4.6-1 1-.6.3-1.4.3h-1.6v3.3H164V243zm3 4q.7 0 1-.5.5-.4.5-1 0-.5-.4-.9t-1-.4h-1.7v2.7h1.6zm4.1-4h3q.8 0 1.5.3.6.3 1 1 .3.5.3 1.2 0 1-.5 1.6-.6.7-1.4.9l2.3 3.4v.1h-1.5l-2.3-3.4h-1v3.4H171V243zm3 4q.7 0 1-.5.5-.4.5-1 0-.5-.4-1-.4-.3-1-.3h-1.7v2.7h1.6zm8.4 4.7q-1.2 0-2.3-.6-1-.6-1.6-1.6-.6-1-.6-2.3 0-1.2.6-2.2.6-1 1.6-1.7 1-.6 2.3-.6 1.2 0 2.3.6 1 .6 1.5 1.7.6 1 .6 2.2 0 1.3-.6 2.3-.5 1-1.5 1.6-1 .6-2.3.6zm0-1.2q.9 0 1.6-.5.7-.4 1-1.1.5-.7.5-1.7t-.4-1.7q-.4-.7-1.1-1-.7-.5-1.6-.5-.9 0-1.6.4-.7.4-1.1 1.1-.4.8-.4 1.7 0 1 .4 1.7t1.1 1.1q.7.5 1.6.5zm4.8-7.6h1.4l2 5.7.3 1 .4-1 2-5.7h1.4l-3.1 8.6h-1.4l-3-8.6zm8.7 0h5.2v1.3h-3.9v2.4h3.5v1.2h-3.5v2.5h3.9v1.2H196V243zm6.8 0h1.8l2.5 6.6h.1l2.5-6.6h1.8v8.6h-1.3v-6.4l-2.5 6.4h-1l-2.6-6.4v6.4h-1.3V243zm10.6 0h5.3v1.3h-4v2.4h3.6v1.2h-3.5v2.5h3.9v1.2h-5.3V243zm6.9 0h1.6l3.9 6.3V243h1.3v8.6h-1.4l-4-6.6h-.2l.1 1.6v5h-1.3V243zm10.5 1.3h-2.5v-1.3h6.2v1.3H232v7.3h-1.3v-7.3z"/><path fill="#ff4e42" d="M243.8 220.8h96v38.4h-96z" fill-rule="evenodd"/><path fill="#000" d="M275.7 236h3q.7 0 1.4.3.6.3 1 .9.4.6.4 1.3 0 .8-.4 1.4-.4.6-1 1-.7.3-1.4.3H277v3.3h-1.3V236zm3 4q.7 0 1-.5.5-.4.5-1 0-.5-.4-1-.4-.3-1-.3H277v2.7h1.7zm8 4.7q-1.2 0-2.2-.6-1-.6-1.6-1.6-.6-1-.6-2.3 0-1.2.6-2.2.6-1 1.6-1.7 1-.6 2.2-.6 1.3 0 2.3.6 1 .6 1.6 1.7.6 1 .6 2.2 0 1.3-.6 2.3-.6 1-1.6 1.6-1 .6-2.3.6zm0-1.2q1 0 1.6-.5.7-.4 1.1-1.1.5-.7.5-1.7t-.5-1.7q-.4-.7-1-1-.8-.5-1.7-.5-.8 0-1.5.4t-1.2 1.1q-.4.8-.4 1.7 0 1 .4 1.7.5.7 1.2 1.1.7.5 1.5.5zm10 1.2q-1.3 0-2.4-.6-1-.6-1.6-1.6-.5-1-.5-2.3 0-1.2.5-2.2.6-1 1.6-1.7 1-.6 2.3-.6 1.3 0 2.3.6 1 .6 1.6 1.7.6 1 .6 2.2 0 1.3-.6 2.3-.6 1-1.6 1.6-1 .6-2.3.6zm0-1.2q.8 0 1.5-.5.7-.4 1.1-1.1.4-.7.4-1.7t-.4-1.7q-.4-.7-1.1-1-.7-.5-1.6-.5-.9 0-1.6.4-.7.4-1 1.1-.5.8-.5 1.7 0 1 .4 1.7t1.1 1.1q.7.5 1.6.5zm5.9-7.6h3q.8 0 1.4.4.6.3 1 .9.4.6.4 1.3 0 1-.6 1.6-.6.7-1.4.9l2.4 3.4v.1h-1.6l-2.2-3.4h-1.1v3.4h-1.3V236zm3 4q.6 0 1-.4t.4-1q0-.5-.4-1-.4-.3-1-.3H304v2.7h1.7z"/><path fill="none" d="M196.8 283.2h96v28.4h-96z"/><path fill="#434343" d="M221.3 303.5q-1.2 0-2.3-.7-1-.7-1.4-2l1.6-.7q.2.8.8 1.3.5.5 1.3.5t1.4-.5q.6-.5.6-1.3t-.6-1.3q-.6-.5-1.6-.5h-1v-1.6h1q.8 0 1.3-.4t.5-1.2q0-.6-.5-1-.4-.4-1.2-.4-.7 0-1.2.4-.4.4-.6 1l-1.6-.7q.4-1 1.2-1.6.9-.7 2.2-.7 1 0 1.8.4.8.3 1.2 1 .5.7.5 1.5 0 .9-.4 1.5l-1 1q.7.3 1.2 1 .6.7.6 1.7t-.5 1.7q-.5.8-1.4 1.2-.8.4-1.9.4zm9.7 0q-1.3 0-2.3-.7-1-.8-1.6-2-.5-1.4-.5-3t.5-3q.6-1.2 1.6-2 1-.7 2.3-.7 1.4 0 2.4.7 1 .8 1.6 2 .5 1.4.5 3t-.5 3q-.6 1.2-1.6 2-1 .7-2.4.7zm0-1.6q.9 0 1.5-.5.6-.6 1-1.5.3-1 .3-2.1 0-1.2-.3-2.1-.4-1-1-1.5t-1.5-.5q-.8 0-1.4.5-.6.5-1 1.5-.3 1-.3 2.1 0 1.2.4 2 .3 1 .9 1.6.6.5 1.4.5zm10.6 1.6q-1.3 0-2.4-.7-1-.8-1.5-2-.6-1.4-.6-3t.6-3q.5-1.2 1.5-2 1-.7 2.4-.7 1.3 0 2.4.7 1 .8 1.5 2 .6 1.4.6 3t-.6 3q-.5 1.2-1.5 2-1 .7-2.4.7zm0-1.6q.8 0 1.5-.5.6-.6 1-1.5.3-1 .3-2.1 0-1.2-.4-2.1-.3-1-1-1.5-.6-.5-1.4-.5-.8 0-1.5.5-.6.5-.9 1.5-.3 1-.3 2.1 0 1.2.3 2 .3 1 1 1.6.6.5 1.4.5zm5.3 1.4zm4.7-8.2h1.7v1.1q.4-.6 1.1-1 .7-.4 1.5-.4t1.5.5q.6.4 1 1 .4-.6 1-1 .8-.5 1.7-.5 1.4 0 2.1.9.8.9.8 2.3v5.3h-1.8v-5q0-1.9-1.6-1.9-.8 0-1.4.7-.5.7-.5 1.8v4.4h-1.8v-5q0-1.9-1.6-1.9-.8 0-1.4.8-.5.7-.5 1.7v4.4h-1.8V295zm17.2 8.4q-1.4 0-2.3-.6-.9-.6-1.2-1.6l1.5-.6q.3.6.8 1 .5.3 1.2.3t1.2-.3q.4-.2.4-.7 0-.4-.4-.7-.4-.3-1.2-.5l-1-.2q-1-.2-1.6-.8-.6-.6-.6-1.6 0-.7.4-1.2.4-.6 1.1-.9.8-.3 1.6-.3 1.2 0 2 .5.9.4 1.3 1.3l-1.5.7q-.5-1-1.8-1-.6 0-1 .3-.4.2-.4.6 0 .7 1.3 1l1.1.3q1.2.3 1.8 1 .7.5.7 1.5 0 .7-.5 1.3-.4.6-1.2.9-.8.3-1.7.3z"/><path fill="none" d="M91.2 283.6h96V312h-96z"/><path fill="#434343" d="M115.9 295l-1.8 1.3-.9-1.3 3.2-2.3h1.2v11H116V295zm8.4 9q-1.4 0-2.4-.8t-1.6-2q-.5-1.4-.5-3t.5-3q.6-1.2 1.6-2 1-.7 2.4-.7 1.3 0 2.3.7 1 .8 1.6 2 .6 1.4.6 3t-.6 3q-.5 1.2-1.6 2-1 .7-2.3.7zm0-1.7q.8 0 1.5-.5.6-.6.9-1.5.3-1 .3-2.1 0-1.2-.3-2.1-.3-1-1-1.5-.6-.5-1.4-.5-.8 0-1.5.5-.6.5-1 1.5l-.2 2q0 1.3.3 2.2.3 1 1 1.5.6.5 1.4.5zm10.5 1.6q-1.3 0-2.3-.7-1-.8-1.6-2-.5-1.4-.5-3t.5-3q.6-1.2 1.6-2 1-.7 2.3-.7 1.4 0 2.4.7 1 .8 1.6 2 .5 1.4.5 3t-.5 3q-.6 1.2-1.6 2-1 .7-2.4.7zm0-1.6q.9 0 1.5-.5.6-.6 1-1.5.3-1 .3-2.1 0-1.2-.3-2.1-.4-1-1-1.5t-1.5-.5q-.8 0-1.4.5-.6.5-1 1.5-.3 1-.3 2 0 1.3.4 2.2.3 1 .9 1.5.6.5 1.4.5zm5.3 1.4zm4.8-8.2h1.6v1.1h.1q.4-.6 1-1 .7-.4 1.5-.4.9 0 1.5.5.7.4 1 1 .4-.6 1-1 .8-.5 1.7-.5 1.5 0 2.2.9.7.9.7 2.3v5.3h-1.7v-5q0-1.9-1.6-1.9-.9 0-1.5.7-.5.7-.5 1.8v4.4h-1.7v-5q0-1.9-1.7-1.9-.8 0-1.4.7-.5.8-.5 1.8v4.4h-1.7v-8.2zm17.2 8.4q-1.4 0-2.3-.6-1-.6-1.3-1.6l1.5-.7q.3.7.9 1 .5.4 1.2.4.6 0 1.1-.3.5-.2.5-.7 0-.4-.4-.7-.4-.3-1.2-.5l-1-.2q-1-.2-1.6-.8-.7-.7-.7-1.6 0-.7.4-1.2.5-.6 1.2-.9.7-.3 1.5-.3 1.2 0 2 .5 1 .4 1.3 1.3l-1.5.7q-.5-1-1.7-1-.6 0-1 .3-.5.2-.5.6 0 .7 1.3 1l1.2.3q1.2.3 1.8 1 .6.5.6 1.4 0 .8-.4 1.4-.5.6-1.3.9-.7.3-1.6.3z"/><path fill="none" d="M139.2 285v-28.5"/><path stroke="#434343" stroke-width="2" stroke-linejoin="round" stroke-linecap="butt" d="M139.2 285v-21"/><path fill="#434343" stroke="#434343" stroke-width="2" stroke-linecap="butt" d="M139.2 257.5a3.3 3.3 0 110 6.6 3.3 3.3 0 010-6.6z"/><path fill="none" d="M48 158.4h288v28.8H48z"/><path fill="#666" d="M121.3 165.7h8.3v1.6h-6.5v4.9h5.9v1.6h-6v6.2h-1.7v-14.3zm11.1 2.2q-.5 0-.8-.3-.4-.4-.4-.9t.4-.9q.3-.3.8-.3.6 0 .9.3.4.4.4.9t-.4.9q-.3.3-.9.3zm-.8 1.9h1.7V180h-1.7v-10.2zm4.4 0h1.6v1.6q.4-.8 1.2-1.4.9-.5 1.8-.5.7 0 1.2.2v1.8q-.6-.3-1.4-.3-.8 0-1.4.4-.6.5-1 1.2t-.4 1.5v5.7H136v-10.2zm10.6 10.5q-1.6 0-2.7-.8-1.1-.7-1.6-2l1.5-.6q.4 1 1.2 1.4.7.5 1.6.5 1 0 1.6-.4.7-.4.7-1 0-.7-.5-1.1-.5-.4-1.7-.7l-1.2-.3q-1.3-.3-2-1-.8-.7-.8-1.9 0-.9.5-1.5.5-.7 1.4-1 .9-.4 2-.4 1.3 0 2.3.6 1 .5 1.5 1.6l-1.5.7q-.7-1.4-2.4-1.4-.8 0-1.5.4-.6.4-.6 1 0 .5.4.9l1.4.6 1.4.3q1.5.4 2.3 1.2.8.7.8 1.8 0 1-.6 1.7-.5.7-1.4 1-1 .4-2 .4zm9.7-.2l-1.1-.1q-.5-.2-.9-.6-.8-.8-.8-2v-6h-1.8v-1.6h1.8v-2.9h1.7v2.9h2.5v1.5h-2.5v5.6q0 .8.3 1.2.4.5 1.1.5.6 0 1.1-.4v1.7l-.6.2h-.8zm2.2-.1zm6.2-14.3h1.7V180h-1.7v-14.3zm4.6 4h1.6v1.6q.5-.8 1.4-1.3 1-.5 2-.5 1.8 0 2.8 1 1 1.1 1 3v6.5h-1.7v-6.3q0-1.4-.7-2-.7-.7-1.9-.7-.8 0-1.5.5-.6.4-1 1.2-.3.7-.3 1.6v5.7h-1.7v-10.2zm11.1 0h1.6v1.6h.1q.5-.8 1.4-1.3 1-.5 2-.5 1.5 0 2.6.7 1 .7 1.7 2 .7 1.2.7 2.7 0 1.5-.7 2.8-.6 1.2-1.7 2-1.1.6-2.5.6-1.2 0-2.1-.5-1-.5-1.4-1.3V184.3h-1.7v-14.5zm5 9q.9 0 1.7-.4.8-.5 1.2-1.4.5-.8.5-2t-.5-2q-.4-1-1.2-1.4-.8-.5-1.7-.5-.9 0-1.7.5-.7.5-1.2 1.4-.5.8-.5 2t.5 2q.5 1 1.2 1.4.8.5 1.7.5zm10.6 1.6q-1.8 0-2.7-1-1-1.2-1-3v-6.5h1.7v6.1q0 1.5.6 2.2.7.7 1.8.7.9 0 1.5-.5.7-.4 1-1.2.5-.7.5-1.5v-5.8h1.6V180h-1.6v-1.5q-.5.8-1.4 1.3-1 .5-2 .5zm11.6-.2l-1.2-.1q-.5-.2-.8-.6-.8-.8-.8-2v-6H203v-1.6h1.8v-2.9h1.7v2.9h2.5v1.5h-2.5v5.6q0 .8.3 1.2.3.5 1 .5t1.2-.4v1.7l-.6.2h-.8zm2.1-.1zm6.3-14.3h4.3q2.2 0 3.8.9 1.7.9 2.6 2.5.8 1.6.8 3.7t-.8 3.8q-1 1.6-2.6 2.5-1.6.9-3.8.9H216v-14.3zm4.3 12.7q2.5 0 4-1.5t1.5-4q0-2.7-1.5-4.1-1.5-1.5-4-1.5h-2.6v11h2.6zm13.6 2q-1.4 0-2.6-.8-1.1-.7-1.8-2-.6-1.2-.6-2.7 0-1.5.6-2.7.6-1.3 1.7-2t2.6-.7q1.5 0 2.6.6 1 .7 1.7 1.9.6 1.2.6 2.7v.5h-8.1q0 1.2.5 2t1.3 1.2q.8.4 1.6.4 2 0 3-1.9l1.4.7q-.6 1.3-1.7 2-1.2.7-2.8.7zm3-6.6q0-.6-.4-1.3-.3-.6-1-1-.7-.5-1.7-.5-1.2 0-2 .8-.9.8-1.1 2h6.2zm3.8-8.1h1.6V180h-1.6v-14.3zm7.3 14.6q-1 0-2-.4-.8-.5-1.3-1.2-.5-.8-.5-1.8 0-1.6 1.2-2.5 1.2-1 3.1-1 1 0 1.7.3l1.2.4v-.6q0-1.1-.8-1.8t-2-.7q-.9 0-1.6.4-.7.3-1.1 1l-1.3-1q.6-.9 1.6-1.4 1.1-.5 2.4-.5 2 0 3.2 1 1.2 1.1 1.2 3v6.5h-1.6v-1.5q-.5.8-1.4 1.3-.9.5-2 .5zm.2-1.5q.9 0 1.6-.4.7-.5 1.2-1.2.4-.8.4-1.6l-1.2-.5q-.7-.2-1.5-.2-1.3 0-2 .5-.8.6-.8 1.5t.7 1.4q.6.5 1.6.5zm10.1.6l-4.2-9.6h1.8l3.2 7.6 3.1-7.6h1.9l-6.3 14.5H256l2.3-5z"/><path fill="none" d="M244.8 284.6v-28.3"/><path stroke="#434343" stroke-width="2" stroke-linejoin="round" stroke-linecap="butt" d="M244.8 284.6v-20.7"/><path fill="#434343" stroke="#434343" stroke-width="2" stroke-linecap="butt" d="M244.8 257.3a3.3 3.3 0 110 6.6 3.3 3.3 0 010-6.6z"/></g></svg>